<?xml version="1.0" standalone="no"?>
<!DOCTYPE svg PUBLIC "-//W3C//DTD SVG 20010904//EN"
 "http://www.w3.org/TR/2001/REC-SVG-20010904/DTD/svg10.dtd">
<svg version="1.0" xmlns="http://www.w3.org/2000/svg"
 width="1600.000000pt" height="1600.000000pt" viewBox="0 0 1600.000000 1600.000000"
 preserveAspectRatio="xMidYMid meet">

<g transform="translate(0.000000,1600.000000) scale(0.100000,-0.100000)"
fill="#000000" stroke="none">
<path d="M11545 12625 c-314 -29 -507 -73 -1120 -259 -273 -83 -337 -103 -715
-225 -85 -27 -213 -68 -285 -90 -71 -22 -229 -72 -350 -110 -121 -38 -303 -95
-405 -126 -166 -51 -409 -128 -780 -246 -215 -69 -300 -96 -470 -149 -91 -28
-280 -89 -420 -135 -140 -46 -329 -106 -420 -135 -91 -28 -199 -62 -240 -76
-80 -25 -432 -136 -515 -162 -27 -8 -95 -30 -150 -47 -55 -18 -161 -52 -235
-75 -222 -69 -528 -166 -820 -260 -151 -49 -396 -128 -545 -175 -698 -224
-834 -268 -887 -286 -32 -11 -93 -31 -135 -44 -460 -140 -872 -345 -1173 -584
-112 -89 -403 -376 -481 -476 -399 -505 -611 -1126 -608 -1780 0 -93 4 -192 8
-220 3 -29 7 35 8 155 1 278 38 581 94 780 11 41 27 99 35 129 48 181 179 475
295 659 252 404 646 777 1059 1002 267 146 480 227 1240 470 462 147 487 156
1115 358 171 56 391 126 490 157 99 31 284 90 410 130 127 41 311 99 410 130
99 31 297 94 440 140 302 97 554 176 745 235 74 23 153 47 175 55 88 29 390
126 545 175 91 28 248 78 350 110 102 33 214 68 250 79 36 11 166 52 290 91
124 39 248 78 275 87 28 8 97 30 155 48 58 19 179 57 270 85 91 29 262 83 380
120 184 59 425 135 665 210 183 58 596 172 690 190 191 39 425 60 665 62 150
1 185 3 130 8 -115 11 -281 9 -435 -5z"/>
<path d="M12135 12609 c44 -5 127 -16 184 -24 57 -9 106 -14 108 -11 10 10
-267 47 -337 45 -19 -1 1 -6 45 -10z"/>
<path d="M12448 12563 c6 -2 18 -2 25 0 6 3 1 5 -13 5 -14 0 -19 -2 -12 -5z"/>
<path d="M12508 12553 c7 -3 16 -2 19 1 4 3 -2 6 -13 5 -11 0 -14 -3 -6 -6z"/>
<path d="M12665 12510 c55 -16 104 -28 109 -27 12 4 -128 45 -174 52 -19 3 10
-8 65 -25z"/>
<path d="M12850 12456 c0 -2 9 -6 20 -9 11 -3 18 -1 14 4 -5 9 -34 13 -34 5z"/>
<path d="M11363 12439 c-86 -8 -170 -25 -418 -85 -59 -15 -151 -41 -310 -91
-95 -29 -300 -92 -440 -134 -55 -17 -140 -44 -190 -60 -49 -16 -103 -33 -120
-38 -16 -5 -82 -25 -145 -44 -63 -20 -167 -52 -230 -72 -63 -19 -171 -53 -240
-75 -69 -22 -208 -65 -310 -96 -102 -31 -230 -71 -285 -89 -114 -38 -207 -67
-790 -246 -71 -22 -186 -58 -255 -80 -69 -21 -130 -39 -136 -39 -6 0 -58 -18
-117 -40 -58 -22 -113 -40 -122 -40 -8 0 -78 -23 -155 -51 -77 -28 -144 -48
-150 -44 -12 8 -13 -15 -1 -34 10 -16 31 -6 31 15 0 11 6 13 23 8 12 -3 19 -3
15 1 -9 9 92 46 104 38 5 -2 30 2 56 10 26 9 121 39 212 67 271 85 512 161
555 175 22 8 101 32 175 55 150 46 400 124 560 175 58 18 166 52 240 75 74 23
182 56 240 74 106 33 385 120 580 181 58 18 164 51 235 73 72 23 198 62 280
87 83 26 200 62 260 82 132 41 207 64 300 92 334 99 376 109 590 141 124 18
102 23 -42 9z m-4186 -1275 c-3 -3 -12 -4 -19 -1 -8 3 -5 6 6 6 11 1 17 -2 13
-5z"/>
<path d="M12911 12436 c9 -8 152 -66 156 -63 2 2 -30 18 -72 36 -68 28 -95 37
-84 27z"/>
<path d="M13081 12365 c3 -2 63 -34 134 -70 141 -71 157 -80 285 -164 169
-110 267 -190 438 -356 102 -99 159 -164 306 -348 52 -65 149 -218 220 -349
26 -49 49 -88 52 -88 13 0 -122 247 -183 333 -90 128 -111 156 -162 222 -105
134 -366 387 -481 468 -14 9 -50 35 -80 57 -105 77 -260 170 -389 235 -116 58
-154 75 -140 60z"/>
<path d="M12998 12213 c7 -3 16 -2 19 1 4 3 -2 6 -13 5 -11 0 -14 -3 -6 -6z"/>
<path d="M6857 11137 c-4 -10 -7 -37 -6 -60 l1 -42 9 45 c10 52 8 87 -4 57z"/>
<path d="M6928 10968 c-9 -25 -16 -86 -17 -143 -2 -55 -7 -102 -12 -106 -11
-6 30 -169 43 -169 2 0 0 37 -3 83 -7 83 5 250 20 290 9 24 3 87 -9 87 -4 0
-14 -19 -22 -42z"/>
<path d="M14520 10975 c0 -5 5 -17 10 -25 5 -8 10 -10 10 -5 0 6 -5 17 -10 25
-5 8 -10 11 -10 5z"/>
<path d="M7030 10915 c6 -15 34 -73 63 -128 29 -56 63 -126 75 -156 12 -30 25
-52 28 -49 5 6 -74 187 -128 291 -32 61 -55 86 -38 42z"/>
<path d="M14555 10895 c9 -22 24 -57 32 -78 9 -21 17 -36 19 -34 6 5 -44 129
-57 142 -6 5 -3 -8 6 -30z"/>
<path d="M14632 10710 c3 -8 15 -46 28 -83 12 -38 24 -66 26 -64 5 5 -43 148
-53 156 -3 3 -4 -1 -1 -9z"/>
<path d="M5540 10660 c-14 -5 -106 -34 -205 -65 -99 -31 -205 -66 -235 -77
-30 -11 -71 -26 -90 -33 -58 -21 -259 -84 -353 -110 -49 -14 -92 -27 -97 -30
-5 -3 -58 -21 -119 -40 -236 -74 -329 -105 -411 -133 -47 -17 -159 -54 -250
-82 -91 -29 -181 -58 -200 -65 -19 -7 -66 -23 -105 -35 -38 -13 -113 -37 -165
-55 -52 -18 -124 -40 -160 -50 -56 -15 -158 -48 -340 -112 -25 -9 -50 -22 -56
-29 -6 -8 -13 -12 -16 -9 -8 8 -153 -53 -151 -64 2 -6 -15 -14 -37 -17 -24 -4
-47 -15 -55 -27 -8 -12 -13 -22 -12 -23 2 -2 32 11 67 28 86 41 244 103 328
129 37 12 87 29 112 39 25 9 119 41 210 70 91 29 210 67 265 85 55 18 181 59
280 90 99 31 212 67 250 80 39 13 165 53 280 90 116 37 255 82 310 100 55 17
188 60 295 94 572 183 720 234 720 247 0 15 -21 16 -60 4z"/>
<path d="M14695 10530 c25 -116 59 -243 62 -234 4 13 -40 198 -56 234 l-12 25
6 -25z"/>
<path d="M5631 10470 c-1 -82 23 -243 44 -295 l15 -40 -6 55 c-4 30 -10 65
-15 78 -15 39 -11 54 13 50 14 -2 25 -13 29 -28 l7 -25 1 26 c1 15 -8 37 -19
50 -18 23 -19 23 -20 4 -1 -19 -1 -19 -11 -1 -8 13 -8 20 0 25 9 6 8 22 -3 62
-27 103 -35 111 -35 39z"/>
<path d="M6962 10425 c0 -16 2 -22 5 -12 2 9 2 23 0 30 -3 6 -5 -1 -5 -18z"/>
<path d="M6971 10375 c0 -11 6 -42 13 -70 8 -27 14 -41 14 -30 0 29 -25 124
-27 100z"/>
<path d="M5738 10267 c-2 -19 4 -66 14 -103 10 -38 21 -83 24 -100 10 -60 42
-179 43 -160 1 10 -6 44 -14 75 -8 31 -16 72 -19 91 -12 89 -35 223 -39 227
-3 2 -6 -11 -9 -30z"/>
<path d="M14781 10174 c0 -11 3 -14 6 -6 3 7 2 16 -1 19 -3 4 -6 -2 -5 -13z"/>
<path d="M7026 10157 c3 -10 9 -15 12 -12 3 3 0 11 -7 18 -10 9 -11 8 -5 -6z"/>
<path d="M14792 10110 c0 -14 2 -19 5 -12 2 6 2 18 0 25 -3 6 -5 1 -5 -13z"/>
<path d="M14805 10036 c28 -278 29 -457 4 -711 -12 -131 -22 -178 -76 -379
-91 -343 -223 -632 -425 -935 -97 -146 -144 -204 -283 -349 -209 -218 -322
-316 -540 -463 -308 -208 -543 -313 -1127 -505 -145 -48 -285 -95 -313 -104
-27 -10 -171 -57 -320 -105 -148 -48 -511 -167 -805 -265 -294 -97 -677 -223
-850 -279 -173 -56 -346 -113 -385 -126 -69 -23 -495 -161 -790 -255 -82 -27
-204 -65 -270 -85 -66 -20 -174 -54 -240 -76 -539 -174 -673 -219 -840 -275
-104 -36 -230 -78 -280 -94 -49 -15 -108 -35 -130 -43 -22 -9 -182 -61 -355
-117 -173 -56 -414 -135 -535 -175 -121 -40 -348 -114 -505 -165 -157 -50
-330 -107 -385 -125 -232 -77 -430 -139 -620 -192 -73 -20 -334 -69 -450 -84
-107 -14 -625 -19 -775 -7 -55 4 -71 3 -45 -2 22 -5 122 -14 221 -21 274 -17
620 6 904 62 60 12 412 109 500 139 30 10 177 57 325 105 149 48 335 109 415
135 80 26 273 89 430 140 157 51 377 123 490 160 113 38 221 73 240 78 19 6
235 78 480 160 475 160 970 322 1215 397 83 26 182 57 220 70 39 13 198 65
355 116 273 87 502 162 1060 344 140 46 271 88 290 94 19 5 114 36 210 69 96
33 425 141 730 241 1117 366 1174 386 1400 481 386 163 738 400 1039 701 166
165 259 282 391 490 222 349 379 769 434 1159 32 222 29 685 -4 810 -9 32 -9
30 -5 -14z"/>
<path d="M2453 9615 c-13 -7 -20 -14 -17 -17 3 -4 -4 -9 -15 -13 -12 -3 -21
-10 -21 -16 0 -13 68 22 75 39 7 20 4 21 -22 7z"/>
<path d="M2344 9540 c-6 -6 -26 -18 -45 -29 -101 -53 -124 -66 -129 -72 -3 -3
-20 -11 -37 -18 -18 -8 -33 -17 -33 -21 0 -3 -11 -13 -25 -20 -13 -7 -22 -16
-20 -20 3 -4 -10 -19 -27 -34 -56 -46 -19 -28 58 29 41 31 125 87 186 125 61
39 105 70 97 70 -8 0 -20 -5 -25 -10z"/>
<path d="M7214 9403 c7 -23 28 -104 72 -273 19 -74 48 -178 64 -230 16 -52 48
-156 70 -230 41 -138 115 -371 170 -540 17 -52 44 -138 60 -190 17 -52 34
-104 39 -115 5 -11 41 -114 80 -230 77 -230 157 -459 191 -545 12 -30 26 -69
31 -85 11 -40 62 -138 53 -105 -4 14 -13 37 -20 52 -8 15 -14 32 -14 38 0 7
-7 26 -15 43 -16 34 -69 184 -135 377 -21 63 -48 140 -58 170 -39 106 -254
775 -317 985 -20 66 -54 176 -75 245 -21 69 -48 161 -60 205 -12 44 -31 107
-41 140 -11 33 -22 69 -24 80 -48 185 -60 225 -67 225 -5 0 -7 -8 -4 -17z"/>
<path d="M1965 9280 c-12 -4 -27 -16 -35 -26 -12 -14 -7 -13 25 6 56 33 59 41
10 20z"/>
<path d="M1865 9214 c-16 -14 -46 -40 -67 -57 -20 -18 -34 -35 -32 -39 3 -5
20 6 37 22 18 16 35 30 38 30 7 0 39 29 58 53 20 25 0 20 -34 -9z"/>
<path d="M14616 9140 c-70 -349 -264 -787 -474 -1068 -32 -42 -61 -84 -67 -93
-16 -28 -143 -168 -235 -259 -169 -169 -382 -336 -542 -429 -18 -10 -73 -42
-123 -71 -243 -143 -498 -243 -1065 -420 -74 -24 -234 -75 -355 -115 -121 -40
-314 -102 -430 -139 -306 -98 -366 -118 -965 -316 -300 -99 -635 -210 -745
-246 -110 -36 -229 -76 -265 -89 -36 -12 -158 -53 -272 -91 -215 -70 -280 -99
-97 -43 57 17 131 40 164 50 33 10 110 34 170 54 61 20 153 49 205 65 112 33
332 103 375 119 66 23 425 140 495 161 140 40 335 101 450 140 63 21 243 80
400 130 1470 473 1632 532 1928 701 109 63 378 237 403 261 8 7 28 24 44 36
51 40 148 124 208 184 32 31 62 58 65 60 4 1 36 34 72 72 36 38 74 79 85 90
54 56 232 308 287 407 46 83 53 94 58 99 8 8 75 148 115 239 37 87 67 189 67
228 0 13 4 20 9 18 5 -3 11 7 15 22 3 15 8 35 11 43 3 8 7 29 9 45 2 17 8 48
14 70 6 22 10 72 8 110 l-3 70 -19 -95z"/>
<path d="M1722 9080 c-7 -11 -8 -20 -2 -20 5 0 14 9 20 20 6 11 7 20 3 20 -5
0 -14 -9 -21 -20z"/>
<path d="M1683 9035 c0 -8 4 -12 9 -9 5 3 6 10 3 15 -9 13 -12 11 -12 -6z"/>
<path d="M1639 8988 c-31 -32 -50 -69 -24 -48 19 16 59 70 54 73 -2 2 -16 -10
-30 -25z"/>
<path d="M1570 8915 c-8 -9 -8 -15 -2 -15 12 0 26 19 19 26 -2 2 -10 -2 -17
-11z"/>
<path d="M1515 8846 c-19 -19 -35 -39 -35 -46 0 -6 -5 -8 -12 -4 -6 4 -8 3 -5
-3 4 -5 -2 -19 -12 -30 -10 -11 -30 -38 -45 -61 -14 -23 -31 -42 -37 -42 -6 0
-9 -7 -5 -15 3 -8 2 -15 -3 -15 -18 0 -155 -257 -221 -415 -52 -126 -127 -413
-143 -550 -8 -64 3 -31 38 120 56 238 174 545 284 735 53 93 186 295 206 315
19 17 38 45 31 45 -3 0 -21 -15 -41 -34z"/>
<path d="M6142 8613 c21 -82 71 -234 74 -230 2 2 -9 46 -26 98 -16 52 -33 109
-36 127 -3 18 -10 34 -14 37 -5 3 -4 -12 2 -32z"/>
<path d="M6221 8364 c-1 -6 32 -112 72 -235 124 -376 172 -524 172 -530 0 -15
130 -388 133 -384 2 2 -16 66 -41 142 -24 76 -68 212 -97 303 -29 91 -70 217
-91 280 -22 64 -39 121 -39 129 0 7 -6 27 -14 44 -8 18 -33 84 -55 147 -22 63
-40 110 -40 104z"/>
<path d="M811 6844 c0 -11 3 -14 6 -6 3 7 2 16 -1 19 -3 4 -6 -2 -5 -13z"/>
<path d="M822 6755 c0 -16 3 -39 8 -50 8 -18 9 -18 8 5 0 14 -4 36 -8 50 -8
24 -8 24 -8 -5z"/>
<path d="M842 6650 c0 -14 2 -19 5 -12 2 6 2 18 0 25 -3 6 -5 1 -5 -13z"/>
<path d="M851 6594 c0 -11 3 -14 6 -6 3 7 2 16 -1 19 -3 4 -6 -2 -5 -13z"/>
<path d="M872 6510 c0 -14 2 -19 5 -12 2 6 2 18 0 25 -3 6 -5 1 -5 -13z"/>
<path d="M881 6463 c-1 -12 5 -42 13 -65 8 -24 26 -86 41 -138 40 -137 180
-478 192 -467 2 2 -12 38 -31 79 -69 151 -139 341 -180 490 -19 68 -35 113
-35 101z"/>
<path d="M8340 6205 c0 -5 5 -17 10 -25 5 -8 10 -10 10 -5 0 6 -5 17 -10 25
-5 8 -10 11 -10 5z"/>
<path d="M7000 6135 c0 -5 5 -17 10 -25 5 -8 10 -10 10 -5 0 6 -5 17 -10 25
-5 8 -10 11 -10 5z"/>
<path d="M7050 6015 c0 -5 5 -17 10 -25 5 -8 10 -10 10 -5 0 6 -5 17 -10 25
-5 8 -10 11 -10 5z"/>
<path d="M8430 6004 c0 -3 9 -21 19 -42 10 -20 19 -39 18 -42 -1 -17 16 -49
24 -45 5 4 9 -4 9 -16 0 -30 47 -109 65 -109 8 0 15 -9 15 -20 0 -11 4 -20 8
-20 4 0 13 -15 21 -32 8 -21 15 -28 18 -19 3 7 -1 17 -8 22 -8 5 -10 9 -4 9 5
0 4 5 -3 12 -7 7 -12 21 -12 33 0 11 -20 51 -45 88 -25 38 -45 72 -45 77 0 4
-7 13 -15 20 -8 7 -15 18 -15 26 0 7 -11 24 -25 38 -14 14 -25 23 -25 20z"/>
<path d="M7073 5958 c19 -53 70 -168 73 -165 4 4 -62 167 -72 176 -4 3 -4 -2
-1 -11z"/>
<path d="M1131 5777 c-2 -21 228 -392 236 -383 3 2 -9 25 -26 49 -17 25 -66
105 -111 178 -101 169 -99 166 -99 156z"/>
<path d="M8700 5679 c0 -5 5 -7 10 -4 6 3 10 8 10 11 0 2 -4 4 -10 4 -5 0 -10
-5 -10 -11z"/>
<path d="M7210 5527 c0 -11 30 -67 35 -67 6 0 -16 52 -27 65 -4 5 -8 6 -8 2z"/>
<path d="M1422 5311 c119 -176 469 -531 614 -622 27 -18 51 -34 54 -38 25 -32
228 -151 426 -250 200 -100 540 -214 717 -241 116 -17 103 -7 -21 18 -239 47
-550 161 -786 287 -250 134 -378 223 -558 388 -172 157 -309 301 -403 422 -62
80 -88 101 -43 36z"/>
<path d="M7230 5203 c-8 -2 -24 -8 -35 -13 -31 -13 -184 -64 -380 -125 -99
-32 -225 -72 -280 -90 -55 -18 -221 -72 -370 -120 -272 -87 -659 -212 -1100
-356 -319 -103 -384 -123 -487 -145 -53 -11 -82 -22 -75 -27 7 -4 -6 -5 -28
-2 -22 3 -33 2 -25 -1 8 -4 18 -11 21 -16 8 -13 130 13 279 59 191 58 430 134
520 165 47 16 92 31 100 33 8 2 89 29 180 60 91 31 182 61 204 66 21 5 55 17
75 27 20 10 70 28 111 41 41 13 89 29 106 37 17 7 53 15 80 19 27 4 63 10 79
15 57 16 601 192 685 222 47 16 132 45 190 64 115 39 193 73 170 74 -13 0 -13
1 0 10 16 10 6 12 -20 3z"/>
<path d="M2860 4426 c0 -2 8 -10 17 -17 14 -12 15 -12 9 0 -7 10 -3 12 15 6
13 -4 28 -11 34 -16 11 -11 45 -12 45 -1 0 9 -72 32 -100 32 -11 0 -20 -2 -20
-4z"/>
<path d="M2993 4383 c10 -15 43 -22 58 -12 12 7 11 9 -1 9 -8 0 -26 3 -39 7
-16 4 -22 2 -18 -4z"/>
<path d="M3210 4341 c12 -9 13 -11 1 -11 -8 0 -12 -2 -10 -5 3 -2 18 0 35 4
16 5 21 10 12 10 -9 1 -25 4 -35 7 -15 5 -15 4 -3 -5z"/>
<path d="M3158 4323 c6 -2 18 -2 25 0 6 3 1 5 -13 5 -14 0 -19 -2 -12 -5z"/>
<path d="M3273 4303 c9 -2 25 -2 35 0 9 3 1 5 -18 5 -19 0 -27 -2 -17 -5z"/>
<path d="M3530 4280 c46 -9 137 -13 129 -6 -2 2 -42 6 -89 9 -62 4 -73 3 -40
-3z"/>
<path d="M3680 4268 c0 -5 18 -8 40 -8 22 0 40 2 40 4 0 2 -18 6 -40 8 -22 2
-40 0 -40 -4z"/>
<path d="M4063 4273 c9 -2 23 -2 30 0 6 3 -1 5 -18 5 -16 0 -22 -2 -12 -5z"/>
<path d="M3350 4140 c14 -4 34 -8 45 -8 l20 -1 -20 9 c-11 5 -31 8 -45 8 l-25
0 25 -8z"/>
</g>
</svg>
